<svg width="142" height="60" viewBox="0 0 142 60" fill="none" xmlns="http://www.w3.org/2000/svg"><path fill-rule="evenodd" clip-rule="evenodd" d="M37.64 14.816c3.04 0 5.522-2.517 5.522-5.6 0-3.082-2.481-5.599-5.523-5.599-3.04 0-5.52 2.517-5.52 5.6.001 3.082 2.48 5.599 5.52 5.599z" fill="#00984A"/><path fill-rule="evenodd" clip-rule="evenodd" d="M59.366 13.705H46.501c-2.34 4.056-5.15 8.369-8.721 10.946-3.573-2.577-6.38-6.89-8.721-10.946H16.193c4.091 5.074 7.697 9.631 11.353 12.76a.3.3 0 00-.03-.009l.158.118c3.203 2.71 6.45 4.315 10.101 4.196.076.003.151.003.226.004l.185.001.247-.002.176-.006a9.407 9.407 0 00.576-.037 8.96 8.96 0 00.404-.045c.144-.018.289-.038.432-.062l.15-.026c.084-.015.168-.03.252-.048.045-.008.089-.019.134-.028.148-.032.295-.065.44-.102l.141-.036.253-.07.121-.036c.15-.044.297-.091.445-.142l.134-.045.252-.091.11-.043c.15-.058.3-.118.447-.182l.131-.056a14.648 14.648 0 00.802-.38c.042-.02.085-.043.129-.065l.247-.131.1-.055c.148-.082.296-.167.445-.255l.127-.075.246-.15.092-.058c.15-.095.3-.192.45-.291l.124-.083c.082-.056.164-.112.245-.17l.08-.057c.153-.108.306-.218.459-.332l.12-.09.248-.188.052-.04c.163-.128.325-.257.487-.39l.108-.088.254-.211.002-.002.059-.05.137-.1a.129.129 0 00-.028.008c3.655-3.129 7.26-7.686 11.35-12.76z" fill="#00984A"/><path d="M79.976 17.934l3.863-6.438h1.44v10.757h-2.046V16.26l-2.545 4.225h-1.425l-2.545-4.225v5.993h-2.046V11.496h1.44l3.864 6.438zm14.001 3.136c-.713.86-1.88 1.337-3.016 1.337-2.197 0-3.848-1.537-3.848-3.872 0-2.075 1.394-3.889 3.576-3.889 2.03 0 3.47 1.737 3.47 3.812 0 .199-.016.4-.045.569h-5.092c.106 1.045.94 1.767 1.984 1.767.834 0 1.5-.476 1.849-.86l1.122 1.136zm-1.835-3.504a1.473 1.473 0 00-1.454-1.305c-.817 0-1.485.63-1.576 1.305h3.03zm8.202-.999c-.136-.046-.424-.077-.713-.077-.864 0-1.545.63-1.788 1.075v4.687h-1.97V14.8h1.895v.752c.439-.553 1.242-.905 2.135-.905.288 0 .455.03.667.06l-.226 1.86zm8.257 4.165c-.864 1.167-1.955 1.675-3.334 1.675-2.273 0-3.939-1.72-3.939-3.872 0-2.168 1.712-3.889 3.955-3.889 1.273 0 2.409.6 3.091 1.49l-1.394 1.245c-.394-.522-.985-.891-1.697-.891-1.136 0-1.985.907-1.985 2.043 0 1.168.833 2.028 2.031 2.028.803 0 1.439-.492 1.757-.984l1.515 1.155zm1.79 5.208l2.03-4.442-3.288-6.7h2.166l2.152 4.472 1.984-4.471h2.076l-5.061 11.14h-2.059zm-36.78 2.02h2.062l2.197 6.716 2.332-6.715h1.44l2.334 6.715 2.196-6.715h2.062l-3.516 10.757H83.28l-2.364-6.808-2.35 6.808h-1.44L73.612 27.96zm17.009-.614a1.27 1.27 0 011.287 1.275 1.27 1.27 0 01-1.287 1.276 1.27 1.27 0 01-1.288-1.276 1.27 1.27 0 011.288-1.275zm.984 11.37h-1.97v-7.452h1.97v7.452zm7.699 0c-.257.093-.848.154-1.227.154-1.182 0-2.046-.4-2.545-1.075-.379-.508-.546-1.168-.546-2.229v-2.612H92.94v-1.69h2.046V29.19h1.97v2.075h2.425v1.69h-2.424v2.843c0 .46.075.738.242.937.198.23.515.368 1 .368.288 0 .666-.045.804-.076l.301 1.69zm3.813-.001h-1.97v-10.91h1.97v3.994a3.219 3.219 0 012-.69 3.29 3.29 0 012.545 1.198c.485.584.757 1.337.757 2.612v3.796h-1.97v-3.95c0-.737-.167-1.121-.439-1.397-.258-.262-.652-.415-1.106-.415-.833 0-1.515.537-1.788.921v4.841h.001zm10.773-7.605c2.227 0 3.91 1.736 3.91 3.887 0 2.152-1.682 3.873-3.91 3.873-2.227 0-3.91-1.721-3.91-3.873 0-2.151 1.683-3.888 3.91-3.888zm0 5.915c1.152 0 1.94-.906 1.94-2.028 0-1.122-.788-2.043-1.94-2.043-1.151 0-1.939.921-1.939 2.043 0 1.121.788 2.028 1.939 2.028zm12.56-5.762v7.452h-1.894v-.599a2.9 2.9 0 01-1.985.752 3.202 3.202 0 01-2.5-1.198c-.47-.585-.742-1.353-.742-2.46v-3.948h1.97v4.026c0 .675.136 1.014.364 1.275.303.339.727.461 1.106.461.833 0 1.44-.569 1.712-.922v-4.84h1.969zm7.716 7.453c-.258.093-.849.154-1.227.154-1.183 0-2.046-.4-2.546-1.075-.378-.508-.545-1.168-.545-2.229v-2.612h-2.046v-1.69h2.046V29.19h1.97v2.075h2.425v1.69h-2.425v2.843c0 .46.076.738.243.937.197.23.514.368 1 .368.287 0 .666-.045.803-.076l.302 1.69zm-59.493 5.708h2.046v8.912h4.47v1.845h-6.516V44.424zm8.844-.615a1.27 1.27 0 011.287 1.275 1.27 1.27 0 01-1.287 1.276 1.27 1.27 0 01-1.288-1.276 1.27 1.27 0 011.288-1.275zm.984 11.37h-1.97v-7.451h1.97v7.452zm2.194.001v-7.452h1.895v.599a2.9 2.9 0 011.984-.753c1 0 1.895.461 2.47 1.168.59-.63 1.515-1.168 2.606-1.168 1.015 0 1.984.461 2.576 1.199.47.584.742 1.352.742 2.459v3.949h-1.97v-4.026c0-.676-.135-1.014-.363-1.276-.303-.338-.727-.46-1.106-.46-.849 0-1.515.598-1.773.984.031.246.06.522.06.829v3.949h-1.97v-4.026c0-.676-.136-1.014-.363-1.276-.303-.338-.728-.46-1.106-.46-.833 0-1.44.568-1.713.921v4.841h-1.969v-.001zm15.344-11.371a1.27 1.27 0 011.288 1.275 1.27 1.27 0 01-1.288 1.276 1.27 1.27 0 01-1.287-1.276 1.27 1.27 0 011.287-1.275zm.985 11.37h-1.97v-7.451h1.97v7.452zm7.7.001c-.258.092-.848.153-1.227.153-1.182 0-2.046-.4-2.545-1.075-.379-.508-.546-1.168-.546-2.229v-2.612h-2.046v-1.69h2.046v-2.075h1.971v2.075h2.424v1.69h-2.424v2.843c0 .46.075.738.242.937.198.23.515.368 1 .368.288 0 .666-.045.804-.077l.301 1.691zm2.149-2.274c.499.46 1.273.738 2.015.738.53 0 .94-.262.94-.63 0-1.122-3.561-.723-3.561-3.119 0-1.43 1.363-2.32 2.819-2.32.955 0 2 .368 2.485.752l-.924 1.444c-.379-.276-.88-.507-1.41-.507-.545 0-1 .215-1 .599 0 .968 3.561.584 3.561 3.165 0 1.43-1.379 2.305-2.925 2.305a5.042 5.042 0 01-2.955-.998l.955-1.43z" fill="#00984A"/><path fill-rule="evenodd" clip-rule="evenodd" d="M33.01 40.63L19.456 26.886a2.73 2.73 0 00-3.899 0l-.31.314a2.824 2.824 0 000 3.954l1.23 1.248 4.471 4.534-.003.003 1.545 1.568c.503.51.503 1.337 0 1.845-.503.51-1.318.51-1.82 0l-1.545-1.567-6.219-6.306a4.668 4.668 0 01-1.348-3.299 4.663 4.663 0 012.155-3.948V13.665c0-1.667-1.332-3.018-2.976-3.018-1.643 0-2.978 1.353-2.978 3.02v20.58h.018c-.04.82.246 1.655.865 2.282L23.09 51.181l-.001.002 5.152 5.225.886-1.85.008-.006.94-1.97.153-.32 2.965-6.217c.986-2.16.894-4.322-.183-5.414zm9.539 0l13.555-13.745a2.73 2.73 0 013.899 0l.31.314a2.824 2.824 0 010 3.954l-1.23 1.248-4.471 4.534.003.003-1.545 1.568a1.317 1.317 0 000 1.845c.502.51 1.318.51 1.82 0l1.545-1.567 6.218-6.306a4.668 4.668 0 001.348-3.299 4.663 4.663 0 00-2.155-3.948V13.665c0-1.667 1.333-3.018 2.977-3.018 1.643 0 2.976 1.35 2.976 3.018v20.58h-.018a3.032 3.032 0 01-.865 2.282L52.467 51.179l.002.001-5.153 5.226-.886-1.85-.007-.006-.94-1.97-.154-.321-2.965-6.216c-.983-2.159-.891-4.32.185-5.412z" fill="#D8364D"/></svg>